<svg version="1.2" xmlns="http://www.w3.org/2000/svg" viewBox="0 0 72 72" width="72" height="72"><style>path{fill:#000}</style><path d="m17 27v18c0 2.21-1.79 4-4 4-2.21 0-4-1.79-4-4v-18c0-2.21 1.79-4 4-4 2.21 0 4 1.79 4 4z" fill-rule="evenodd"/><path d="m63 27v18c0 2.21-1.79 4-4 4-2.21 0-4-1.79-4-4v-18c0-2.21 1.79-4 4-4 2.21 0 4 1.79 4 4z" fill-rule="evenodd"/><path d="m27 9h18c2.21 0 4 1.79 4 4 0 2.21-1.79 4-4 4h-18c-2.21 0-4-1.79-4-4 0-2.21 1.79-4 4-4zm41 10c-2.21 0-4-1.79-4-4 0-2.21 1.79-4 4-4 2.21 0 4 1.79 4 4 0 2.21-1.79 4-4 4zm-11-11c-2.21 0-4-1.79-4-4 0-2.21 1.79-4 4-4 2.21 0 4 1.79 4 4 0 2.21-1.79 4-4 4zm-42 0c-2.21 0-4-1.79-4-4 0-2.21 1.79-4 4-4 2.21 0 4 1.79 4 4 0 2.21-1.79 4-4 4zm-11 11c-2.21 0-4-1.79-4-4 0-2.21 1.79-4 4-4 2.21 0 4 1.79 4 4 0 2.21-1.79 4-4 4z"/><path d="m45 63h-18c-2.21 0-4-1.79-4-4 0-2.21 1.79-4 4-4h18c2.21 0 4 1.79 4 4 0 2.21-1.79 4-4 4zm23-2c-2.21 0-4-1.79-4-4 0-2.21 1.79-4 4-4 2.21 0 4 1.79 4 4 0 2.21-1.79 4-4 4zm-11 11c-2.21 0-4-1.79-4-4 0-2.21 1.79-4 4-4 2.21 0 4 1.79 4 4 0 2.21-1.79 4-4 4zm-42 0c-2.21 0-4-1.79-4-4 0-2.21 1.79-4 4-4 2.21 0 4 1.79 4 4 0 2.21-1.79 4-4 4zm-11-11c-2.21 0-4-1.79-4-4 0-2.21 1.79-4 4-4 2.21 0 4 1.79 4 4 0 2.21-1.79 4-4 4z"/><path d="m36 48c-6.64 0-12-5.36-12-12 0-6.64 5.36-12 12-12 6.64 0 12 5.36 12 12 0 6.64-5.36 12-12 12zm4-12c0-2.21-1.79-4-4-4-2.21 0-4 1.79-4 4 0 2.21 1.79 4 4 4 2.21 0 4-1.79 4-4z" fill-rule="evenodd"/></svg>
